<svg xmlns="http://www.w3.org/2000/svg" viewBox="0 0 512 512">
  <defs>
    <linearGradient id="bg" x1="0%" y1="0%" x2="100%" y2="100%">
      <stop offset="0%" stop-color="#D4C4F0"/>
      <stop offset="100%" stop-color="#C0ADE8"/>
    </linearGradient>
  </defs>
  <!-- Background rounded square -->
  <rect width="512" height="512" rx="96" fill="url(#bg)"/>
  <!-- Shadow for text -->
  <text x="250" y="400" text-anchor="middle" font-family="Georgia, 'Times New Roman', serif" font-size="340" font-weight="700" font-style="italic" fill="rgba(255,255,255,0.3)" letter-spacing="-15">Dd</text>
  <!-- Main Dd text -->
  <text x="245" y="395" text-anchor="middle" font-family="Georgia, 'Times New Roman', serif" font-size="340" font-weight="700" font-style="italic" fill="white" letter-spacing="-15">Dd</text>
  <!-- Small star -->
  <path d="M165 130 l4 12 13 0 -10 8 4 12 -11 -8 -11 8 4 -12 -10 -8 13 0z" fill="#F5D76E" opacity="0.9"/>
  <!-- Large star -->
  <path d="M220 78 l8 25 26 0 -21 15 8 25 -21 -15 -21 15 8 -25 -21 -15 26 0z" fill="#F5D76E"/>
  <!-- Heart -->
  <path d="M320 95 c0 0 -5-18 -22-18 c-17 0 -22 18 -22 18 s0 20 22 35 c22-15 22-35 22-35z" fill="#F5A3B2" opacity="0.9"/>
</svg>